<?xml version="1.0" encoding="UTF-8"?>
<svg width="24px" height="24px" viewBox="0 0 24 24" version="1.1" xmlns="http://www.w3.org/2000/svg" xmlns:xlink="http://www.w3.org/1999/xlink">
    <!-- Generator: Sketch 52.4 (67378) - http://www.bohemiancoding.com/sketch -->
    <title>A / Icon / Forum</title>
    <desc>Created with Sketch.</desc>
    <defs>
        <circle id="path-1" cx="12" cy="12" r="12"></circle>
    </defs>
    <g id="A-/-Icon-/-Forum" stroke="none" stroke-width="1" fill="none" fill-rule="evenodd">
        <mask id="mask-2" fill="white">
            <use xlink:href="#path-1"></use>
        </mask>
        <use id="Oval" fill="#000000" fill-rule="nonzero" xlink:href="#path-1"></use>
        <g id="A-/-Color-/-Purple" mask="url(#mask-2)" fill="#6072FF" fill-rule="nonzero">
            <rect id="Rectangle-2" x="0" y="0" width="24" height="24"></rect>
        </g>
        <path d="M16,8 L8,8 C7.45,8 7.005,8.45 7.005,9 L7,18 L9,16 L16,16 C16.55,16 17,15.55 17,15 L17,9 C17,8.45 16.55,8 16,8 Z M9,11.5 L15,11.5 L15,12.5 L9,12.5 L9,11.5 Z M13,14 L9,14 L9,13 L13,13 L13,14 Z M15,11 L9,11 L9,10 L15,10 L15,11 Z" id="Chat" fill="#FFFFFF" fill-rule="nonzero" mask="url(#mask-2)"></path>
    </g>
</svg>