<?xml version="1.0" encoding="UTF-8"?>
<svg width="24px" height="24px" viewBox="0 0 24 24" version="1.1" xmlns="http://www.w3.org/2000/svg" xmlns:xlink="http://www.w3.org/1999/xlink">
    <!-- Generator: Sketch 52.4 (67378) - http://www.bohemiancoding.com/sketch -->
    <title>A / Icon / Github</title>
    <desc>Created with Sketch.</desc>
    <defs>
        <path d="M12.0527394,1.00000591 C6.63331565,0.99437924 2.01115667,5.00769164 1.14344093,10.4722943 C0.275725196,15.9368969 3.41903651,21.2369051 8.56233792,22.981464 C9.11809116,23.0853134 9.31463804,22.7322254 9.31463804,22.4345238 C9.31463804,22.1368221 9.31463804,21.4583393 9.31463804,20.5167714 C6.23088529,21.2021775 5.58024734,19.00057 5.58024734,19.00057 C5.37566834,18.3182278 4.94104927,17.7319915 4.35352372,17.3459028 C3.35723437,16.6535734 4.43485346,16.6535734 4.43485346,16.6535734 C5.14249972,16.7556785 5.76484214,17.1846061 6.12244563,17.8166867 C6.42531633,18.3776781 6.93443914,18.7923483 7.53727258,18.9690344 C8.14010602,19.1457206 8.78700421,19.0698719 9.33497047,18.7582547 C9.37750611,18.1887091 9.6178731,17.6534354 10.0127183,17.2489766 C7.55927109,16.9651216 4.98382923,15.9958605 4.98382923,11.7103415 C4.96698313,10.5908321 5.37223115,9.50757765 6.11566815,8.68486212 C5.78455731,7.71146687 5.82325718,6.64656051 6.22410781,5.70092245 C6.22410781,5.70092245 7.15262237,5.39629752 9.26041821,6.85711253 C11.0704012,6.34946954 12.9808577,6.34946954 14.7908407,6.85711253 C16.8986366,5.39629752 17.8203737,5.70092245 17.8203737,5.70092245 C18.2268074,6.63655395 18.2751718,7.69382078 17.9559232,8.66409224 C18.6993602,9.48680776 19.1046082,10.5700622 19.0877621,11.6895717 C19.0877621,16.0235536 16.5055428,16.9720449 14.0453181,17.2282068 C14.5790945,17.7763201 14.853596,18.5341778 14.7976182,19.3051949 C14.7976182,20.814473 14.7976182,22.0329727 14.7976182,22.3999073 C14.7976182,22.7668419 14.9941651,23.0506969 15.5566958,22.9399242 C20.638924,21.1502388 23.7205372,15.8814548 22.8549673,10.4617146 C21.9893974,5.04197435 17.4282778,1.04687402 12.0527394,1.00000591 Z" id="path-1"></path>
    </defs>
    <g id="A-/-Icon-/-Github" stroke="none" stroke-width="1" fill="none" fill-rule="evenodd">
        <mask id="mask-2" fill="white">
            <use xlink:href="#path-1"></use>
        </mask>
        <use id="github" fill="#FFFFFF" xlink:href="#path-1"></use>
        <g id="A-/-Color-/-Purple" mask="url(#mask-2)" fill="#6072FF" fill-rule="nonzero">
            <rect id="Rectangle-2" x="0" y="0" width="24" height="24"></rect>
        </g>
    </g>
</svg>