<?xml version="1.0" encoding="UTF-8"?>
<svg width="24px" height="13px" viewBox="0 0 24 13" version="1.1" xmlns="http://www.w3.org/2000/svg" xmlns:xlink="http://www.w3.org/1999/xlink">
    <!-- Generator: sketchtool 52.2 (67145) - http://www.bohemiancoding.com/sketch -->
    <title>0023A388-09E3-440D-89A2-69C9BD60D9C4</title>
    <desc>Created with sketchtool.</desc>
    <g id="Grids" stroke="none" stroke-width="1" fill="none" fill-rule="evenodd">
        <g id="Desktop-HD" transform="translate(-1053.000000, -598.000000)" fill="#FFFFFF" fill-rule="nonzero">
            <g id="projects" transform="translate(165.000000, 550.000000)">
                <g id="card-2-copy-2" transform="translate(855.000000, 0.000000)">
                    <g id="icon" transform="translate(21.000000, 30.000000)">
                        <path d="M20,23 L17,23 L17,20 L15,20 L15,23 L12,23 L12,25 L15,25 L15,28 L17,28 L17,25 L20,25 L20,23 Z M30,24 C31.66,24 32.99,22.66 32.99,21 C32.99,19.34 31.66,18 30,18 C29.68,18 29.37,18.05 29.09,18.14 C29.66,18.95 29.99,19.93 29.99,21 C29.99,22.07 29.65,23.04 29.09,23.86 C29.37,23.95 29.68,24 30,24 Z M25,24 C26.66,24 27.99,22.66 27.99,21 C27.99,19.34 26.66,18 25,18 C23.34,18 22,19.34 22,21 C22,22.66 23.34,24 25,24 Z M31.62,26.16 C32.45,26.89 33,27.82 33,29 L33,31 L36,31 L36,29 C36,27.46 33.63,26.51 31.62,26.16 Z M25,26 C23,26 19,27 19,29 L19,31 L31,31 L31,29 C31,27 27,26 25,26 Z" id="icon_group"></path>
                    </g>
                </g>
            </g>
        </g>
    </g>
</svg>