<?xml version="1.0" encoding="UTF-8"?>
<svg width="21px" height="20px" viewBox="0 0 21 20" version="1.1" xmlns="http://www.w3.org/2000/svg" xmlns:xlink="http://www.w3.org/1999/xlink">
    <!-- Generator: sketchtool 52.2 (67145) - http://www.bohemiancoding.com/sketch -->
    <title>F0032794-1EF7-4BDE-8AD2-A34516524D87</title>
    <desc>Created with sketchtool.</desc>
    <g id="Grids" stroke="none" stroke-width="1" fill="none" fill-rule="evenodd">
        <g id="Desktop-HD" transform="translate(-465.000000, -591.000000)" fill="#FFFFFF" fill-rule="nonzero">
            <g id="M-/-Card" transform="translate(436.000000, 544.000000)">
                <g id="A-/-Icon-/-Vagas" transform="translate(15.937500, 31.538462)">
                    <path d="M31.875,15.7692308 L15.9375,15.7692308 C14.8417969,15.7692308 13.9552734,16.65625 13.9552734,17.7403846 L13.9453125,35.4807692 L17.9296875,31.5384615 L31.875,31.5384615 C32.9707031,31.5384615 33.8671875,30.6514423 33.8671875,29.5673077 L33.8671875,17.7403846 C33.8671875,16.65625 32.9707031,15.7692308 31.875,15.7692308 Z M17.9296875,22.6682692 L29.8828125,22.6682692 L29.8828125,24.6394231 L17.9296875,24.6394231 L17.9296875,22.6682692 Z M25.8984375,27.5961538 L17.9296875,27.5961538 L17.9296875,25.625 L25.8984375,25.625 L25.8984375,27.5961538 Z M29.8828125,21.6826923 L17.9296875,21.6826923 L17.9296875,19.7115385 L29.8828125,19.7115385 L29.8828125,21.6826923 Z" id="Chat"></path>
                </g>
            </g>
        </g>
    </g>
</svg>