<?xml version="1.0" encoding="UTF-8"?>
<svg width="20px" height="19px" viewBox="0 0 20 19" version="1.1" xmlns="http://www.w3.org/2000/svg" xmlns:xlink="http://www.w3.org/1999/xlink">
    <!-- Generator: sketchtool 52.2 (67145) - http://www.bohemiancoding.com/sketch -->
    <title>A11AB222-EB6B-4D5C-83A7-F39D81B0E218</title>
    <desc>Created with sketchtool.</desc>
    <g id="Grids" stroke="none" stroke-width="1" fill="none" fill-rule="evenodd">
        <g id="Desktop-HD" transform="translate(-770.000000, -594.000000)" fill="#FFFFFF" fill-rule="nonzero">
            <g id="projects" transform="translate(165.000000, 550.000000)">
                <g id="card-2-copy" transform="translate(570.000000, 0.000000)">
                    <g id="icon" transform="translate(21.000000, 30.000000)">
                        <path d="M32,18 L28,18 L28,16 C28,14.89 27.11,14 26,14 L22,14 C20.89,14 20,14.89 20,16 L20,18 L16,18 C14.89,18 14.01,18.89 14.01,20 L14,31 C14,32.11 14.89,33 16,33 L32,33 C33.11,33 34,32.11 34,31 L34,20 C34,18.89 33.11,18 32,18 Z M26,18 L22,18 L22,16 L26,16 L26,18 Z" id="icon_work"></path>
                    </g>
                </g>
            </g>
        </g>
    </g>
</svg>