<?xml version="1.0" encoding="UTF-8"?>
<svg width="20px" height="17px" viewBox="0 0 20 17" version="1.1" xmlns="http://www.w3.org/2000/svg" xmlns:xlink="http://www.w3.org/1999/xlink">
    <!-- Generator: sketchtool 52.2 (67145) - http://www.bohemiancoding.com/sketch -->
    <title>12B6B0CF-2CBC-4D72-9F5A-C4D4FE5530AA</title>
    <desc>Created with sketchtool.</desc>
    <g id="Grids" stroke="none" stroke-width="1" fill="none" fill-rule="evenodd">
        <g id="Desktop-HD" transform="translate(-1123.000000, -705.000000)" fill="#6072FF" fill-rule="nonzero">
            <g id="projects" transform="translate(165.000000, 550.000000)">
                <g id="card-2-copy-2" transform="translate(855.000000, 0.000000)">
                    <path d="M121,159.666667 L121,155 C118.064848,157.066081 114.58777,158.225108 111,158.333333 L108.333333,158.333333 L108.333333,165 C108.333333,167.033333 108.333333,170.133333 112.1,171.633333 L112.333333,171.633333 C112.665979,171.646724 112.957515,171.412661 113.01633,171.084982 C113.075144,170.757303 112.883206,170.436463 112.566667,170.333333 C109.666667,169.2 109.666667,166.966667 109.666667,165 L111,165 C114.604617,165.009532 118.110587,166.178189 121,168.333333 L121,163.666667 C122.104569,163.666667 123,162.771236 123,161.666667 C123,160.562097 122.104569,159.666667 121,159.666667 Z M103,160.333333 L103,163 C103,164.104569 103.895431,165 105,165 L107,165 L107,158.333333 L105,158.333333 C103.895431,158.333333 103,159.228764 103,160.333333 Z" id="icon_megaphone"></path>
                </g>
            </g>
        </g>
    </g>
</svg>