<?xml version="1.0" encoding="UTF-8"?>
<svg width="24px" height="24px" viewBox="0 0 24 24" version="1.1" xmlns="http://www.w3.org/2000/svg" xmlns:xlink="http://www.w3.org/1999/xlink">
    <!-- Generator: Sketch 52.4 (67378) - http://www.bohemiancoding.com/sketch -->
    <title>A / Icon / Libras</title>
    <desc>Created with Sketch.</desc>
    <defs>
        <path d="M21.4166667,6.04166667 L21.4166667,19.3333333 C21.4166667,21.35 19.780303,23 17.780303,23 L11.1439394,23 C10.1621212,23 9.23484848,22.6058333 8.5530303,21.9091667 L1.41666667,14.5941667 C1.41666667,14.5941667 2.56212121,13.4666667 2.59848485,13.4483333 C2.79848485,13.2741667 3.04393939,13.1825 3.31666667,13.1825 C3.51666667,13.1825 3.69848485,13.2375 3.86212121,13.3291667 C3.89848485,13.3383333 7.78030303,15.5841667 7.78030303,15.5841667 L7.78030303,4.66666667 C7.78030303,3.90583333 8.38939394,3.29166667 9.14393939,3.29166667 C9.89848485,3.29166667 10.5075758,3.90583333 10.5075758,4.66666667 L10.5075758,11.0833333 L11.4166667,11.0833333 L11.4166667,2.375 C11.4166667,1.61416667 12.0257576,1 12.780303,1 C13.5348485,1 14.1439394,1.61416667 14.1439394,2.375 L14.1439394,11.0833333 L15.0530303,11.0833333 L15.0530303,3.29166667 C15.0530303,2.53083333 15.6621212,1.91666667 16.4166667,1.91666667 C17.1712121,1.91666667 17.780303,2.53083333 17.780303,3.29166667 L17.780303,11.0833333 L18.6893939,11.0833333 L18.6893939,6.04166667 C18.6893939,5.28083333 19.2984848,4.66666667 20.0530303,4.66666667 C20.8075758,4.66666667 21.4166667,5.28083333 21.4166667,6.04166667 Z" id="path-1"></path>
    </defs>
    <g id="A-/-Icon-/-Libras" stroke="none" stroke-width="1" fill="none" fill-rule="evenodd">
        <mask id="mask-2" fill="white">
            <use xlink:href="#path-1"></use>
        </mask>
        <use id="Shape" fill="#FFFFFF" fill-rule="nonzero" xlink:href="#path-1"></use>
        <g id="A-/-Color-/-Purple" mask="url(#mask-2)" fill="#6072FF" fill-rule="nonzero">
            <rect id="Rectangle-2" x="0" y="0" width="24" height="24"></rect>
        </g>
    </g>
</svg>