<?xml version="1.0" encoding="UTF-8"?>
<svg width="24px" height="24px" viewBox="0 0 24 24" version="1.1" xmlns="http://www.w3.org/2000/svg" xmlns:xlink="http://www.w3.org/1999/xlink">
    <!-- Generator: Sketch 52.4 (67378) - http://www.bohemiancoding.com/sketch -->
    <title>A / Icon / Meetup</title>
    <desc>Created with Sketch.</desc>
    <defs>
        <path d="M17.4312523,20.1776034 C16.9771176,20.4916682 16.8635096,21.1143848 17.1774831,21.5685819 C17.4914565,22.022779 18.1141518,22.136513 18.5684138,21.8226325 C19.0226757,21.508752 19.1365363,20.8860815 18.8227471,20.4317571 C18.6720192,20.2134135 18.4406761,20.063944 18.179677,20.016273 C17.9186779,19.9686021 17.6494336,20.0266404 17.4312523,20.1776034 M12.2156039,22.0889113 C11.9885138,22.2459613 11.9317474,22.5573481 12.0888121,22.7844154 C12.2458768,23.0114827 12.5572962,23.0682458 12.7843889,22.9111998 C13.0114817,22.7541538 13.0682536,22.442768 12.9111929,22.2156979 C12.8358336,22.1065694 12.7201677,22.0318832 12.5896884,22.0081004 C12.4592091,21.9843177 12.3246268,22.0133905 12.2156039,22.0889113 M4.01134366,18.6061471 C4.06995811,18.8758506 4.33609102,19.0470275 4.60586443,18.9885435 C4.87563783,18.9300595 5.04696185,18.6640465 4.98858931,18.3942906 C4.93021677,18.1245347 4.66423749,17.9531192 4.39441174,18.0113613 C4.26475899,18.0393054 4.15153549,18.1176376 4.07968367,18.2291017 C4.00783185,18.3405659 3.98324652,18.4760173 4.01134366,18.605617 M2.82466037,12.5654566 C3.13692636,12.110054 3.02093445,11.4877416 2.56557257,11.1754152 C2.11021069,10.8630888 1.4878807,10.9789964 1.17549191,11.4343148 C0.863103121,11.8896331 0.978927206,12.5119768 1.43420485,12.824426 C1.65289502,12.9745886 1.92230425,13.0316688 2.18310114,12.983096 C2.44389803,12.9345231 2.67469363,12.7842808 2.82466037,12.5654566 M5.78431862,5.91122054 C6.01142171,5.75421124 6.06825774,5.44283883 5.91127054,5.21572284 C5.75428335,4.98860685 5.442911,4.93173733 5.21577298,5.0886961 C4.98863496,5.24565487 4.93172966,5.55701463 5.08866632,5.78416554 C5.16402438,5.89331497 5.2796799,5.96803361 5.41015969,5.99186464 C5.54063947,6.01569567 5.67524115,5.98668438 5.78431862,5.91122054 M7.98873316,1.3946665 C7.94612603,1.19696324 7.78861024,1.04439961 7.58964748,1.00812774 C7.39068472,0.971855871 7.18946547,1.05902038 7.07983371,1.22896976 C6.97020195,1.39891913 6.97375228,1.61817779 7.0888289,1.78448859 C7.20390552,1.95079939 7.40784135,2.03140343 7.60552545,1.98870888 C7.73513316,1.9607799 7.84833079,1.88249279 7.92020152,1.77107995 C7.99207225,1.65966711 8.01672497,1.52426085 7.98873316,1.3946665 M14.8574749,2.48572757 C14.6494519,2.13881322 14.2529302,1.951406 13.8528515,2.01091458 C13.4527729,2.07042316 13.1279495,2.36512484 13.0298822,2.75756772 C12.931815,3.1500106 13.0798224,3.56288677 13.4048722,3.80362651 C13.729922,4.04436624 14.1679823,4.06554587 14.514737,3.85728699 C14.9879449,3.57308116 15.1413588,2.95915313 14.8574749,2.48572757 M19.30541,9.21830621 C19.3821431,8.22218813 19.119375,7.22958722 18.561466,6.40807266 C17.4300659,4.73966971 15.3644215,4.12682142 13.5774902,4.78810955 C11.9808592,3.74580956 9.86888083,3.70194862 8.21125914,4.8690836 C7.40408313,5.43640688 6.78562745,6.24098412 6.43827531,7.17563924 C5.95035016,7.24287662 5.46904415,7.40916263 5.0361997,7.71426131 C3.60504715,8.72234011 3.2272834,10.6874069 4.13552391,12.1772332 C2.90294556,13.3277396 2.61879535,15.2431616 3.55540361,16.7228661 C4.11070214,17.600085 4.98324658,18.1285853 5.91938205,18.2857136 C5.95307302,19.6850003 6.73711903,20.9526317 7.96113348,21.5867804 C9.18514793,22.2209291 10.6517691,22.1193441 11.7803938,21.3222407 C11.8451668,21.2762108 11.8955195,21.2181312 11.9567466,21.1692094 C12.9042291,22.0326916 14.3259258,22.1736732 15.4166654,21.4061067 C15.9984405,20.9964165 16.3705307,20.4004378 16.5329361,19.7526454 C17.3863323,19.7846976 18.2550943,19.5637059 19.0115674,19.0296627 C20.8261573,17.7523934 21.3131369,15.2528014 20.152187,13.3675036 C21.0840673,12.5666798 21.2847691,11.1657805 20.5689564,10.1316743 C20.2611153,9.69041025 19.8157325,9.36846051 19.30541,9.21830621 M21.5693078,8.82236244 C22.0230893,8.50802423 22.1363663,7.88536705 21.8223772,7.43129874 C21.5083881,6.97723043 20.8859221,6.86353534 20.4317407,7.17729523 C19.9775593,7.49105512 19.8634896,8.11356749 20.1769002,8.56803542 C20.3275997,8.78646425 20.5589422,8.9360052 20.8199563,8.98371011 C21.0809704,9.03141501 21.3502385,8.97336942 21.568433,8.82236244 M22.9887079,13.3946462 C22.9460931,13.1969431 22.7885722,13.0443853 22.5896102,13.0081232 C22.3906482,12.9718611 22.1894361,13.0590375 22.0798159,13.2289947 C21.9701957,13.398952 21.97376,13.6182124 22.0888465,13.7845167 C22.203933,13.950821 22.4078722,14.0314109 22.6055504,13.9887007 C22.8752892,13.9303106 23.0467565,13.6644644 22.9887079,13.3946462 M23.988795,10.3952169 C24.0465594,10.6647405 23.875303,10.930174 23.6059396,10.9886116 C23.4082152,11.0315074 23.2041304,10.9509963 23.0889397,10.784656 C22.973749,10.6183156 22.9701637,10.3989423 23.0798573,10.2289262 C23.1895509,10.0589101 23.3908957,9.97177214 23.5899162,10.0081831 C23.7889367,10.044594 23.9463934,10.1973749 23.988795,10.3952169 Z M16.9896432,16.2462109 C17.1699202,17.3849607 14.9437472,16.9612998 14.4345769,16.7139494 C13.6369161,16.3259257 13.1525545,15.4394499 13.3595305,14.5642279 C13.5140536,13.909394 14.9888755,11.2356647 15.0441636,10.8246644 C15.1006331,10.4056927 14.8759366,10.3695865 14.7341722,10.3627873 C14.5524776,10.3534091 14.4090593,10.4413299 14.2306725,10.7081401 C14.0683523,10.9515048 12.234394,14.5954105 12.0751454,14.8929344 C11.7916166,15.4253825 11.4324803,15.5545675 11.0733439,15.5346388 C10.5497609,15.5074419 10.3085252,15.22844 10.3843691,14.7269399 C10.4290249,14.4319951 11.5922014,11.82532 11.6524513,11.4185399 C11.6895463,11.1669693 11.6401651,10.9001591 11.3878245,10.7721464 C11.1354839,10.6441338 10.8387239,10.840373 10.7498849,10.9890177 C10.6272587,11.1939317 8.97806665,15.4668811 8.80251512,15.7833959 C8.49866684,16.3313182 8.17875194,16.5048152 7.69793448,16.5282607 C6.56145686,16.5817165 5.71701383,15.6537421 6.088909,14.5156956 C6.2547733,14.0088031 7.34966671,10.1653759 7.90302026,9.18699355 C8.2760968,8.52958064 9.31168545,8.03019066 10.0294857,8.33849949 C10.4016171,8.49816361 10.9169305,8.75348553 11.069091,8.82030532 C11.4199578,8.97457696 11.7961059,8.55654301 11.9447222,8.42829591 C12.0933385,8.30004881 12.2341577,8.16570587 12.4158524,8.08903896 C12.597547,8.01237205 12.8815483,7.98025166 13.1010468,8.01237205 C13.2590251,8.03140228 13.4086037,8.09348369 13.5331918,8.19173042 C13.6945669,8.31927415 13.7952196,8.42032442 13.9476163,8.56428003 C14.1772746,8.78068236 14.34243,8.64962179 14.4574954,8.58350538 C14.6569106,8.46862223 14.8119063,8.37530899 15.4025912,8.38585948 C16.0098152,8.39640997 16.7077684,8.61164002 16.8526043,9.63902354 C17.0139794,10.7803524 14.969501,13.719954 15.1124468,15.0840155 C15.213572,16.045517 16.8511867,15.3688788 16.9896432,16.2462109 Z" id="path-1"></path>
    </defs>
    <g id="A-/-Icon-/-Meetup" stroke="none" stroke-width="1" fill="none" fill-rule="evenodd">
        <mask id="mask-2" fill="white">
            <use xlink:href="#path-1"></use>
        </mask>
        <use id="meetup" fill="#FFFFFF" fill-rule="nonzero" xlink:href="#path-1"></use>
        <g id="A-/-Color-/-Purple" mask="url(#mask-2)" fill="#6072FF" fill-rule="nonzero">
            <rect id="Rectangle-2" x="0" y="0" width="24" height="24"></rect>
        </g>
    </g>
</svg>