<?xml version="1.0" encoding="UTF-8"?>
<svg width="24px" height="24px" viewBox="0 0 24 24" version="1.1" xmlns="http://www.w3.org/2000/svg" xmlns:xlink="http://www.w3.org/1999/xlink">
    <!-- Generator: Sketch 52.4 (67378) - http://www.bohemiancoding.com/sketch -->
    <title>A / Icon / Slack</title>
    <desc>Created with Sketch.</desc>
    <defs>
        <path d="M10.0573303,11.0908593 L12.9924473,10.1077406 L13.9420506,12.9427968 L11.0069336,13.9259155 L10.0573303,11.0908593 Z M22.077839,8.9748895 C19.8090062,1.41211325 16.5376657,-0.346671922 8.9748895,1.92216095 C1.41211325,4.19099383 -0.346671922,7.46233425 1.92216095,15.0251105 C4.19099383,22.5878867 7.46233425,24.3466719 15.0251105,22.077839 C22.5878867,19.8090062 24.3466719,16.5376657 22.077839,8.9748895 Z M18.2255428,13.8773872 L16.8070647,14.3490087 L17.2974028,15.8162756 C17.4900356,16.4101693 17.1748183,17.0564655 16.5794077,17.2486076 C16.4568232,17.2835425 16.3167266,17.3184774 16.1941421,17.30101 C15.7388281,17.2835425 15.3010262,16.9865956 15.1434175,16.5324416 L14.6530794,15.0651747 L11.7285628,16.0433526 L12.2189009,17.5106195 C12.4115338,18.1045133 12.0963164,18.7508094 11.5009059,18.9429515 C11.3783213,18.9778864 11.2382247,19.0128214 11.1156402,18.9953539 C10.6603262,18.9778864 10.2225243,18.6809396 10.0649157,18.2267855 L9.57457756,16.7595186 L8.15609946,17.2311401 C8.03351493,17.266075 7.89341832,17.30101 7.7708338,17.2835425 C7.31551984,17.266075 6.87771795,16.9691282 6.72010927,16.5149741 C6.52747645,15.9210804 6.8426938,15.2747842 7.43810437,15.0826421 L8.85658247,14.6110206 L7.9109304,11.7987591 L6.49245229,12.2703806 C6.36986777,12.3053155 6.22977116,12.3402504 6.10718664,12.322783 C5.65187268,12.3053155 5.21407079,12.0083686 5.05646211,11.5542146 C4.86382929,10.9603208 5.17904664,10.3140247 5.7744572,10.1218826 L7.19293531,9.65026109 L6.7025972,8.18299419 C6.50996437,7.58910044 6.82518173,6.9428043 7.42059229,6.7506622 C8.01600285,6.55852011 8.66394964,6.87293445 8.85658247,7.4668282 L9.34692058,8.9340951 L12.2714372,7.95591716 L11.7810991,6.48865026 C11.5884662,5.89475651 11.9036836,5.24846037 12.4990941,5.05631828 C13.0945047,4.86417618 13.7424515,5.17859052 13.9350843,5.77248427 L14.4254224,7.23975117 L15.8439005,6.76812967 C16.4393111,6.57598757 17.0872579,6.89040191 17.2798907,7.48429566 C17.4725236,8.07818941 17.1573062,8.72448554 16.5618956,8.91662764 L15.1434175,9.38824914 L16.0890696,12.2005107 L17.5075477,11.7288892 C18.1029583,11.5367471 18.7509051,11.8511615 18.9435379,12.4450552 C19.1361707,13.0389489 18.8209534,13.6852451 18.2255428,13.8773872 Z" id="path-1"></path>
    </defs>
    <g id="A-/-Icon-/-Slack" stroke="none" stroke-width="1" fill="none" fill-rule="evenodd">
        <mask id="mask-2" fill="white">
            <use xlink:href="#path-1"></use>
        </mask>
        <use id="Shape" fill="#FFFFFF" fill-rule="nonzero" xlink:href="#path-1"></use>
        <g id="A-/-Color-/-Purple" mask="url(#mask-2)" fill="#6072FF" fill-rule="nonzero">
            <rect id="Rectangle-2" x="0" y="0" width="24" height="24"></rect>
        </g>
    </g>
</svg>