<?xml version="1.0" encoding="UTF-8"?>
<svg width="24px" height="24px" viewBox="0 0 24 24" version="1.1" xmlns="http://www.w3.org/2000/svg" xmlns:xlink="http://www.w3.org/1999/xlink">
    <!-- Generator: Sketch 52.4 (67378) - http://www.bohemiancoding.com/sketch -->
    <title>A / Icon / Twitter</title>
    <desc>Created with Sketch.</desc>
    <defs>
        <path d="M7.78233651,21 C15.9078741,21 20.3575733,14.0705475 20.3575733,8.06767473 C20.3575733,7.87440042 20.3575733,7.67544157 20.3465182,7.48216726 C21.2088201,6.83412986 21.9605705,6.03829446 22.5520212,5.13445282 C21.7394675,5.49826329 20.8882207,5.74838299 20.009336,5.85070469 C20.9324413,5.28225083 21.6233884,4.38977827 21.9495154,3.33245409 C21.0761583,3.86680072 20.1309427,4.24198027 19.1415065,4.43525458 C17.4721783,2.59914862 14.669697,2.51388054 12.8842897,4.24198027 C11.7400814,5.35046529 11.248127,7.00466602 11.6074195,8.58496774 C8.05871534,8.39737797 4.73664179,6.68064732 2.49797326,3.83269349 C1.32612702,5.90755007 1.92310529,8.56222959 3.86881226,9.90378069 C3.16128246,9.88672708 2.48139053,9.69345277 1.86230195,9.33532683 C1.86230195,9.35238045 1.86230195,9.36943407 1.86230195,9.38648768 C1.86230195,11.5466123 3.34369249,13.411141 5.41100614,13.8431659 C4.7587521,14.0307557 4.0733326,14.0534939 3.4100234,13.9227495 C3.98489137,15.775909 5.64869193,17.0435611 7.53912314,17.0776684 C5.97481896,18.351005 4.04016714,19.0331497 2.05023956,19.0331497 C1.69647465,19.0331497 1.34270975,19.004727 1,18.9706197 C3.03414819,20.2894327 5.37784068,21 7.78233651,21" id="path-1"></path>
    </defs>
    <g id="A-/-Icon-/-Twitter" stroke="none" stroke-width="1" fill="none" fill-rule="evenodd">
        <mask id="mask-2" fill="white">
            <use xlink:href="#path-1"></use>
        </mask>
        <use id="twitter" fill="#FFFFFF" fill-rule="nonzero" xlink:href="#path-1"></use>
        <g id="A-/-Color-/-Purple" mask="url(#mask-2)" fill="#6072FF" fill-rule="nonzero">
            <rect id="Rectangle-2" x="0" y="0" width="24" height="24"></rect>
        </g>
    </g>
</svg>