<?xml version="1.0" encoding="UTF-8"?>
<svg width="105px" height="41px" viewBox="0 0 105 41" version="1.1" xmlns="http://www.w3.org/2000/svg" xmlns:xlink="http://www.w3.org/1999/xlink">
    <!-- Generator: sketchtool 52.2 (67145) - http://www.bohemiancoding.com/sketch -->
    <title>7BDFCE2E-BBF8-4FA1-ADCC-249821BF3D4F</title>
    <desc>Created with sketchtool.</desc>
    <g id="Grids" stroke="none" stroke-width="1" fill="none" fill-rule="evenodd">
        <g id="Desktop-HD" transform="translate(-165.000000, -26.000000)" fill-rule="nonzero">
            <g id="top">
                <g id="header" transform="translate(165.000000, 20.000000)">
                    <g id="white-logo" transform="translate(0.000000, 6.000000)">
                        <path d="M57.6608491,18.0183962 C56.992217,16.0372642 56.04375,14.1626179 55.184434,12.2632075 C54.8451574,11.6069401 54.8451574,10.8269042 55.184434,10.1706368 C56.0610849,8.27122642 56.8584906,6.33466981 57.6880896,4.41544811 L57.9357311,4.41544811 C59.528066,4.41544811 59.5082547,4.41544811 58.8148585,5.90129717 C58.1214623,7.38714623 57.4726415,8.90023585 56.7990566,10.4009434 C56.5433455,10.9690908 56.5643668,11.6234919 56.8560142,12.1740566 C57.559316,13.7069575 58.2304245,15.2522406 58.9188679,16.7900943 C59.4760613,18.0283019 59.4810142,18.0283019 58.1561321,18.0283019 C57.9902123,18.0332547 57.8267689,18.0233491 57.6608491,18.0183962 Z" id="Shape" fill="#EAEAEA"></path>
                        <path d="M29.4396226,18.0233491 C29.4396226,14.5786557 29.4742925,11.1339623 29.4643868,7.68926887 C29.4643868,6.50801887 28.6768868,5.54964623 28.4143868,4.43773585 C30.1330189,4.38573113 31.1112028,5.39610849 31.1632075,7.57040094 C31.2399764,10.7897406 31.1954009,13.9917453 31.178066,17.2011792 C31.1706368,18.6176887 30.0512972,17.8153302 29.4396226,18.0233491 Z" id="Shape" fill="#EAEAE9"></path>
                        <path d="M15.064033,18.0183962 C16.7052901,13.6332776 16.7140801,8.80403599 15.0887972,4.4129717 C16.8495283,4.4129717 17.7311321,5.26733491 17.7930425,7.31285377 C17.8698113,9.91061321 17.8450472,12.5133255 17.7930425,15.1086085 C17.7732311,16.0224057 17.2977594,16.8420991 16.8668632,17.6345519 C16.435967,18.4270047 15.6732311,17.9143868 15.064033,18.0183962 Z" id="Shape" fill="#EAEAE9"></path>
                        <path d="M76.4741745,18.0183962 C76.4840802,15.021934 76.4931604,12.0262972 76.5014151,9.03148585 C76.5014151,7.3178066 76.5014151,7.3178066 78.2349057,7.3995283 C78.2349057,10.3464623 78.2349057,13.2950472 78.2349057,16.245283 C78.2349057,18.0505896 78.2349057,18.0505896 76.4741745,18.0183962 Z" id="Shape" fill="#EAEAEA"></path>
                        <path d="M51.9601415,9.60849057 C51.2791274,10.034434 50.53125,9.7620283 49.8180425,9.78431604 C49.1048349,9.80660377 49.2707547,9.21226415 49.2658019,8.79375 C49.248467,5.93349057 49.2435142,3.07323113 49.2336085,0.212971698 C50.9943396,0.180778302 50.9943396,0.180778302 50.9943396,1.98856132 C50.9943396,4.2 51.0215802,6.41143868 50.9943396,8.62287736 C50.9670991,9.37570755 51.2073113,9.70507075 51.9601415,9.60849057 Z" id="Shape" fill="#EAEAEA"></path>
                        <path d="M69.5872642,12.5900943 C69.8349057,11.3865566 70.5555425,10.3613208 70.6372642,9.07110849 C70.74375,7.37228774 70.0454009,5.94587264 69.5352594,4.43773585 C71.2836085,4.38325472 72.0463443,5.08903302 72.259316,7.3178066 C72.3757075,8.55601415 72.3831368,9.7942217 71.9101415,11.0646226 C71.4396226,12.2929245 70.8254717,12.8154481 69.5872642,12.5900943 Z" id="Shape" fill="#EAEAE9"></path>
                        <path d="M37.3938679,15.021934 C35.6603774,15.1086085 35.6603774,15.1086085 35.6603774,13.4221698 L35.6603774,9.01415094 C35.6603774,7.31533019 35.6603774,7.31533019 37.3938679,7.3995283 C37.3856132,9.94033019 37.3856132,12.4811321 37.3938679,15.021934 Z" id="Shape" fill="#EAEAEA"></path>
                        <path d="M49.2336085,18.0159198 C49.2336085,16.6340802 49.3029481,15.2497642 49.2336085,13.8728774 C49.1915094,12.9491745 49.4193396,12.4637972 50.429717,12.6346698 C50.925,12.7213443 51.4871462,12.4415094 51.9527123,12.8352594 C51.2097877,12.7411557 50.925,13.0556604 50.9621462,13.8084906 C51.0141509,14.6207547 50.9621462,15.4379717 50.9621462,16.2551887 C50.9943396,18.0505896 50.9943396,18.0505896 49.2336085,18.0159198 Z" id="Shape" fill="#EAEAE8"></path>
                        <path d="M10.3836085,4.67051887 C8.41981132,5.64622642 8.41981132,5.64622642 8.41981132,3.52393868 C8.41981132,2.42193396 8.4,1.31745283 8.38761792,0.212971698 C10.135967,0.193160377 10.0913915,0.195636792 10.1533019,1.90188679 C10.1854953,2.82311321 9.85613208,3.78643868 10.3836085,4.67051887 Z" id="Shape" fill="#EBEAE7"></path>
                        <path d="M64.634434,15.021934 C62.8588443,15.1110849 62.9133255,15.1086085 62.8737028,13.6574292 C62.8514151,12.8204009 63.1560142,12.6123821 63.9360849,12.6247642 C65.8181604,12.6544811 67.7002358,12.6074292 69.5823113,12.5925708 C68.4976415,13.1150943 67.3535377,12.7783019 66.2292453,12.8228774 C64.6270047,12.8897406 64.6270047,12.8402123 64.6270047,14.4102594 L64.634434,15.021934 Z" id="Shape" fill="#EAEAEA"></path>
                        <path d="M42.7676887,7.35495283 L43.3372642,4.40801887 C43.7037736,4.40801887 44.0801887,4.40801887 44.4367925,4.40801887 C44.684434,4.40801887 44.9073113,4.45259434 45.0137972,4.74481132 C45.4323113,5.89139151 44.3699292,7.38714623 43.1391509,7.36733491 C43.0128538,7.37476415 42.889033,7.36238208 42.7676887,7.35495283 Z" id="Shape" fill="#EBEBEA"></path>
                        <path d="M42.7949292,18.0183962 L43.3075472,15.0714623 C43.7136792,15.0714623 44.1198113,15.0714623 44.5284198,15.0714623 C44.7799295,15.0555685 44.99887,15.2416679 45.0237028,15.4924528 C45.3159198,16.901533 44.3699292,18.040684 42.9113208,18.0183962 L42.7949292,18.0183962 Z" id="Shape" fill="#EAEAE9"></path>
                        <path d="M69.5080189,18.0010613 C69.6731132,17.0286557 69.8448113,16.05625 70.0231132,15.0838443 C70.1455745,15.0847989 70.2679778,15.0781825 70.3896226,15.064033 C71.6278302,14.8163915 71.7095519,15.4082547 71.5560142,16.4582547 C71.3678066,17.7583726 70.8254717,18.3254717 69.5080189,18.0010613 Z" id="Shape" fill="#EAEAEA"></path>
                        <path d="M8.38266509,18.0208726 C8.35542453,17.2432783 8.55353774,16.7826651 9.43514151,17.2630896 C9.75955189,17.4364387 10.0963443,17.5800708 10.4257075,17.7360849 C9.79669811,18.1818396 9.07606132,18.0010613 8.38266509,18.0208726 Z" id="Shape" fill="#ECEAE1"></path>
                        <path d="M92.3034198,18.0010613 C92.9472877,17.7063679 93.5862028,17.396816 94.2424528,17.1244104 C94.6163915,16.9683962 94.8665094,17.0748821 94.8145047,17.5478774 C94.0443396,18.0629717 93.1850236,18.1025943 92.3034198,18.0010613 Z" id="Shape" fill="#ECEAE3"></path>
                        <path d="M23.9543632,18.0010613 C24.5982311,17.7063679 25.2371462,17.396816 25.8933962,17.1244104 C26.2673349,16.9683962 26.5174528,17.0748821 26.4654481,17.5478774 C25.695283,18.0629717 24.835967,18.1025943 23.9543632,18.0010613 Z" id="Shape" fill="#ECEAE3"></path>
                        <path d="M78.254717,4.71757075 C78.0070755,4.85129717 77.759434,4.98997642 77.5117925,5.12122642 C76.7292453,5.52983491 76.3899764,5.29457547 76.5014151,4.41544811 C77.0808962,4.52193396 77.759434,4.14056604 78.254717,4.71757075 Z" id="Shape" fill="#EBEAE6"></path>
                        <path d="M94.8268868,4.66308962 C94.8714623,5.12122642 94.8739387,5.52983491 94.2127358,5.23266509 C93.5936321,4.95778302 92.9745283,4.68785377 92.3479953,4.41544811 C93.1924528,4.30400943 94.004717,4.53679245 94.8268868,4.66308962 Z" id="Shape" fill="#EDEAE1"></path>
                        <path d="M99.2076651,26.9929245 C100.359198,26.715566 101.030307,27.1959906 101.664269,28.1915094 C102.731604,29.8630896 103.595873,31.6807783 104.980189,33.1443396 L104.980189,34.1349057 C103.910377,35.7792453 102.773703,37.3864387 101.793042,39.0877358 C101.144222,40.2120283 100.361675,40.8212264 99.0417453,40.5735849 C98.8683962,40.0064858 99.3091981,39.6647406 99.5518868,39.2660377 C100.490448,37.7257075 101.481014,36.2200472 102.44434,34.6970519 C102.902476,33.9739387 102.897524,33.3721698 102.412146,32.6688679 C101.42158,31.2573113 100.57217,29.7615566 99.6063679,28.3376179 C99.3413915,27.9389151 98.9823113,27.5426887 99.2076651,26.9929245 Z" id="Shape" fill="#D3D3D3"></path>
                        <path d="M88.4080189,37.5548349 C86.7067217,37.6489387 86.7116745,37.6489387 86.7067217,35.932783 C86.6918632,31.5379717 86.6737028,27.1423349 86.6522406,22.7458726 C88.403066,22.7458726 88.403066,22.7458726 88.403066,24.4397406 C88.3948113,28.8114387 88.3964623,33.1831368 88.4080189,37.5548349 Z" id="Shape" fill="#D3D3D3"></path>
                        <path d="M21.9930425,40.55625 C23.726533,36.0244104 23.7067217,31.4876179 22.0227594,26.935967 C23.7834906,26.935967 24.6650943,27.795283 24.7270047,29.8358491 C24.8037736,32.4336085 24.7790094,35.0363208 24.7270047,37.6340802 C24.7096698,38.5454009 24.2317217,39.3675708 23.8008255,40.1575472 C23.3699292,40.9475236 22.604717,40.4472877 21.9930425,40.55625 Z" id="Shape" fill="#D3D3D3"></path>
                        <path d="M49.9913915,40.5612028 C50.00625,37.071934 50.0582547,33.5826651 50.0211085,30.0933962 C50.0087264,28.976533 49.2286557,28.0454009 48.9636792,26.9731132 C50.6971698,26.9211085 51.6654481,27.9290094 51.7174528,30.1033019 C51.7942217,33.3226415 51.7496462,36.5246462 51.7323113,39.7365566 C51.7248821,41.153066 50.603066,40.3482311 49.9913915,40.5612028 Z" id="Shape" fill="#D3D3D3"></path>
                        <path d="M7.59764151,40.5413915 C6.44858491,38.6518868 5.3490566,36.7301887 4.13066038,34.8877358 C3.58584906,34.0630896 3.53136792,33.4662736 4.10341981,32.6168632 C5.34162736,30.7818396 6.44363208,28.8601415 7.60011792,26.9731132 L9.33360849,26.9731132 C8.11768868,28.9542453 7.05778302,30.8363208 5.81214623,32.5995283 C5.18561321,33.4885613 5.32924528,34.1126179 5.83938679,34.9025943 C7.01320755,36.7178066 8.14245283,38.5627358 9.38313679,40.5413915 L7.59764151,40.5413915 Z" id="Shape" fill="#D3D3D3"></path>
                        <path d="M75.0353774,37.5523585 C73.4058962,37.6464623 73.4058962,37.6464623 73.4058962,36.09375 C73.4058962,33.3696934 73.3737028,30.6456368 73.4257075,27.9215802 C73.440566,27.0895047 73.165684,26.8666274 72.3757075,26.9012972 C71.0161557,26.9582547 69.6516509,26.9557783 68.2920991,26.9012972 C67.6507075,26.876533 67.5070755,27.1489387 67.5689858,27.6838443 C67.1232311,27.0152123 67.3213443,26.6586085 68.1063679,26.6932783 C70.0751179,26.7774764 72.0413915,26.5446934 74.0225236,26.8839623 C74.9412736,27.0399764 75.0477594,27.3792453 75.0428066,28.1395047 C75.0056604,31.2795991 75.0205189,34.4221698 75.0353774,37.5523585 Z" id="Shape" fill="#D3D3D3"></path>
                        <path d="M30.1627358,40.55625 C30.1726415,37.5300708 30.1825472,34.5038915 30.1924528,31.4777123 C30.1924528,29.8110849 30.1924528,29.8110849 31.9259434,29.9349057 C31.9259434,32.8851415 31.9259434,35.8337264 31.9259434,38.7806604 C31.9259434,40.5834906 31.9259434,40.5834906 30.1627358,40.55625 Z" id="Shape" fill="#D3D3D3"></path>
                        <path d="M62.5740566,40.5413915 C63.2674528,38.8722877 63.889033,37.2056604 63.6933962,35.3260613 C63.626533,34.6698113 63.4853774,34.315684 62.8514151,34.0507075 C60.8479953,33.2136792 58.8891509,32.2949292 56.890684,31.4232311 C56.3582547,31.1904481 55.7490566,31.0245283 55.9595519,30.2518868 C56.1601415,29.5213443 56.7866745,30.0191038 57.1977594,29.8903302 C57.3641882,29.8739732 57.5322088,29.8890951 57.6930425,29.9349057 C57.5741745,30.7372642 57.8589623,31.1508255 58.6836085,31.4727594 C60.7439858,32.2751179 62.7424528,33.2458726 64.7731132,34.1324292 C65.1074292,34.2785377 65.332783,34.4568396 65.3575472,34.8332547 C65.4838443,36.6583726 65.3897406,38.4488208 64.4759434,40.0981132 C64.0029481,40.9301887 63.2179245,40.4472877 62.5740566,40.5413915 Z" id="Shape" fill="#D3D3D3"></path>
                        <path d="M17.3349057,27.2009434 C15.3834906,28.1667453 15.3909198,28.1667453 15.3810142,26.0791274 C15.3810142,24.967217 15.3488208,23.8503538 15.3314858,22.7458726 C17.0798349,22.7458726 17.0377358,22.7458726 17.0996462,24.4372642 C17.1194575,25.3584906 16.7826651,26.321816 17.3349057,27.2009434 Z" id="Shape" fill="#D3D3D3"></path>
                        <path d="M36.5964623,29.9027123 C36.7896226,29.0582547 36.3661557,28.2930425 36.2918632,27.4807783 C36.2497642,27.0226415 35.9451651,26.9037736 35.509316,26.9136792 C34.6475236,26.935967 33.7758255,26.9136792 32.9189858,26.9136792 C34.4939858,26.3639151 36.1086085,26.6264151 37.5820755,27.0845519 C38.4512972,27.3520047 38.396816,28.6917453 38.2754717,29.4916274 C38.1367925,30.3336085 37.1784198,29.7739387 36.5964623,29.9027123 Z" id="Shape" fill="#D3D3D3"></path>
                        <path d="M90.3272406,40.5488208 L90.8373821,37.609316 C91.4020047,37.7158019 92.3380896,37.2576651 92.4569575,37.9188679 C92.5956368,38.689033 92.3182783,39.6375 91.9393868,40.3581368 C91.6818396,40.8459906 90.884434,40.5091981 90.3272406,40.5488208 Z" id="Shape" fill="#D3D3D3"></path>
                        <path d="M77.234434,40.5636792 C77.4944575,39.5904481 77.8188679,38.6246462 77.7495283,37.5919811 C78.3042453,37.7182783 79.1338443,37.245283 79.3814858,37.9485849 C79.6291274,38.6518868 79.3319575,39.4889151 79.0050708,40.1649764 C78.6435142,40.920283 77.8386792,40.4522406 77.234434,40.5636792 Z" id="Shape" fill="#D3D3D3"></path>
                        <path d="M73.3018868,25.7126179 C73.4672587,24.728954 73.4672587,23.7245838 73.3018868,22.7409198 C73.8442217,22.8201651 74.6168632,22.4610849 74.8867925,22.9885613 C75.2458726,23.696816 75.1938679,24.6254717 74.9313679,25.3584906 C74.6787736,26.0444575 73.8491745,25.59375 73.3018868,25.7126179 Z" id="Shape" fill="#D3D3D3"></path>
                        <path d="M63.5745283,29.895283 C63.7082547,28.8700472 63.2179245,27.9413915 63.1262972,26.9483491 C64.7260613,26.9483491 65.4912736,27.8002358 65.3402123,29.3925708 C65.3466142,29.5359093 65.2905411,29.67498 65.1865053,29.7737903 C65.0824695,29.8726006 64.9406962,29.9214387 64.7978774,29.9076651 C64.3867925,29.9101415 63.9806604,29.9002358 63.5745283,29.895283 Z" id="Shape" fill="#D3D3D3"></path>
                        <path d="M15.3141509,40.5587264 C15.3141509,39.7613208 15.4800708,39.2536557 16.4087264,39.8158019 C16.7182783,39.9990566 17.0600236,40.1278302 17.3869104,40.2813679 C16.740566,40.6949292 16.0149764,40.5364387 15.3141509,40.5587264 Z" id="Shape" fill="#D3D3D3"></path>
                        <path d="M31.9457547,27.2628538 C31.4247261,27.5943005 30.8458585,27.8245033 30.2395047,27.9413915 C30.2196934,27.5872642 30.2023585,27.270283 30.1850236,26.9508255 C30.7694575,27.0622642 31.4504717,26.6709906 31.9457547,27.2628538 Z" id="Shape" fill="#D3D3D3"></path>
                        <path d="M44.4863208,40.5314858 C45.1574292,40.2318396 45.8260613,39.9198113 46.5045991,39.6375 C46.9181604,39.4666274 47.1534198,39.5731132 47.0196934,40.0783019 C46.2432438,40.4901034 45.3573807,40.6485716 44.4863208,40.5314858 Z" id="Shape" fill="#D3D3D3"></path>
                        <path d="M62.5740566,40.5413915 C59.646934,40.5413915 56.7173349,40.5413915 53.7902123,40.5834906 C53.0101415,40.5958726 52.9358491,40.3680425 53.0992925,39.6647406 C53.5698113,37.6043632 53.5351415,37.596934 55.6004717,37.596934 C57.0021226,37.596934 58.4037736,37.6142689 59.8103774,37.596934 C60.1100236,37.596934 60.5954009,37.8619104 60.6597877,37.2205189 C60.709316,36.7252358 60.5929245,36.385967 60.0753538,36.1630896 C58.0347877,35.2889151 56.0313679,34.328066 53.9709906,33.5009434 C53.1413915,33.1666274 52.8293632,32.7258255 52.9259434,31.8615566 C53.0051887,31.1681604 52.864033,30.4400943 53.0027123,29.7665094 C53.5178066,27.2653302 53.9932783,26.9112028 56.5786557,26.9186321 C58.7628538,26.9186321 60.9470519,26.9458726 63.13125,26.9607311 C63.7181604,27.8770047 64.1762972,28.8130896 63.5794811,29.9076651 L57.6880896,29.9472877 C57.4033019,30.3509434 56.5340802,30.0587264 56.5761792,30.6902123 C56.6108491,31.2102594 57.3191038,31.2548349 57.7425708,31.4653302 C59.3943396,32.2825472 61.1204009,32.9363208 62.7944575,33.6941038 C63.554717,34.0432783 63.9410377,34.548467 63.9558962,35.3879717 C63.9856132,37.2329009 64.0004717,39.0753538 62.5740566,40.5413915 Z" id="Shape" fill="#FFFFFF"></path>
                        <path d="M90.3272406,40.5488208 C88.4303066,40.5488208 86.5333726,40.5191038 84.6314858,40.5884434 C83.8142689,40.6181604 83.6978774,40.3036557 83.7028302,39.5978774 C83.7325472,35.3879717 83.6830189,31.178066 83.7424528,26.9830189 C83.7548349,25.9924528 83.5517689,25.5788915 82.4819575,25.6903302 C81.9148585,25.7472877 81.0728774,26.0518868 80.7707547,25.4971698 C80.3943396,24.8037736 80.3349057,23.9196934 80.2333726,23.1049528 C80.1590802,22.5279481 80.6865566,22.7607311 80.9441038,22.7582547 C82.8410377,22.7384434 84.7379717,22.7582547 86.6398585,22.7582547 C87.1351415,23.3055425 87.0385613,23.9964623 87.0410377,24.6304245 C87.0410377,28.1543632 87.0732311,31.6783019 87.0286557,35.1997642 C87.0137972,36.3191038 87.1450472,37.2329009 88.3956368,37.567217 L90.8373821,37.6216981 C91.2880896,38.6964623 90.9488208,39.6474057 90.3272406,40.5488208 Z" id="Shape" fill="#FFFFFF"></path>
                        <path d="M77.234434,40.5636792 C74.0150943,40.5636792 70.8130896,40.5339623 67.6036557,40.5909198 C66.7195755,40.6057783 66.5115566,40.3432783 66.5338443,39.4938679 C66.5858491,37.5994104 66.5338443,37.596934 68.5149764,37.596934 C70.4366745,37.596934 70.4366745,37.596934 70.4366745,35.6579009 C70.4366745,34.0069575 70.4366745,32.3560142 70.4366745,30.7050708 C70.4366745,30.3088443 70.5134434,29.7392689 69.8745283,29.8903302 C67.915684,30.3534198 67.7893868,28.9814858 67.564033,27.6788915 C67.3683962,27.1241745 67.4996462,26.8096698 68.1509434,26.8146226 C69.6731132,26.8146226 71.196934,26.8146226 72.7224057,26.8146226 C73.6535377,26.8146226 73.6287736,27.5204009 73.6535377,28.1147406 C73.7228774,29.8853774 73.6733491,31.6560142 73.6807783,33.4266509 C73.7163033,34.0429064 73.7121674,34.6608084 73.6683962,35.276533 C73.5346698,36.4107311 73.9160377,37.1833726 75.0304245,37.5399764 L77.7544811,37.5820755 C78.254717,38.7014151 77.9674528,39.6721698 77.234434,40.5636792 Z" id="Shape" fill="#FFFFFF"></path>
                        <path d="M36.5964623,29.9027123 L31.9284198,29.9349057 C30.7100236,30.2865566 30.5242925,31.1731132 30.5564858,32.3048349 C30.6233491,34.5137972 30.5862028,36.7252358 30.5713443,38.9366745 C30.5713443,39.50625 30.6208726,40.0981132 30.1627358,40.55625 C27.2207547,40.6057783 27.2777123,40.6057783 27.2058962,37.6910377 C27.1241745,34.328066 27.6120283,30.9378538 26.7353774,27.6120283 C26.5942217,27.0746462 26.7923349,26.8691038 27.3470519,26.8988208 C28.2930425,26.9433962 29.239033,26.9384434 30.1850236,26.9533019 C30.6505896,27.7482311 31.3637972,27.1340802 31.9457547,27.2628538 L32.9189858,26.9087264 C33.5232311,26.7428066 34.1398585,26.8369104 34.751533,26.834434 C36.6509434,26.8195755 37.4211085,28.1048349 36.5964623,29.9027123 Z" id="Shape" fill="#FFFFFF"></path>
                        <path d="M99.2076651,26.9929245 C100.381486,28.8626179 101.513208,30.7595519 102.746462,32.5871462 C103.320991,33.439033 103.288797,34.0729953 102.716745,34.9125 C101.441392,36.7648585 100.260142,38.6816038 99.0417453,40.5711085 L95.6044811,40.5711085 C96.5826651,38.9663915 97.3553066,37.3864387 98.4201651,36.034316 C99.6979953,34.4122642 99.7376179,33.0626179 98.4201651,31.440566 C97.357783,30.1181604 96.6,28.5481132 95.6366745,26.9681604 C96.9417453,26.8938679 98.0660377,26.8319575 99.2076651,26.9929245 Z" id="Shape" fill="#FFFFFF"></path>
                        <path d="M7.59764151,40.5413915 C4.23466981,40.6602594 4.23466981,40.6602594 2.4615566,37.8916274 C1.75330189,36.7846698 1.06485849,35.6628538 0.321933962,34.5757075 C-0.079507284,34.0843003 -0.079507284,33.3781997 0.321933962,32.8867925 C1.41403302,31.2424528 2.50860849,29.5981132 3.50908019,27.8992925 C3.96721698,27.1192217 4.49964623,26.7898585 5.38620283,26.8938679 C6.12912736,26.978066 6.87205189,26.9508255 7.61497642,26.9731132 C7.86261792,27.4436321 7.47134434,27.7408019 7.27570755,28.0751179 C6.34705189,29.6352594 5.41591981,31.2028302 4.40801887,32.6886792 C3.8879717,33.4588443 3.91273585,34.0705189 4.40801887,34.8159198 C5.38125,36.2398585 6.28266509,37.7158019 7.14941038,39.2090802 C7.39209906,39.6226415 7.81061321,39.9817217 7.59764151,40.5413915 Z" id="Shape" fill="#FFFFFF"></path>
                        <path d="M73.3018868,25.7126179 C72.8896123,25.6850199 72.4759538,25.6850199 72.0636792,25.7126179 C70.8923349,25.8760613 70.3301887,25.6383255 70.3698113,24.2267689 C70.3995283,22.9712264 70.7189858,22.5353774 71.9398585,22.7409198 C72.3907244,22.7756312 72.8435916,22.7756312 73.2944575,22.7409198 C73.8423219,23.655 73.8451739,24.7958099 73.3018868,25.7126179 Z" id="Shape" fill="#FFFFFF"></path>
                        <path d="M23.3476415,30.1255896 C23.3080189,28.934434 23.0306604,27.7705189 22.0227594,26.9483491 C20.4527123,26.9483491 18.8678066,26.7007075 17.3175708,27.1959906 C15.6757075,27.3123821 15.7178066,27.3099057 15.6558962,25.7101415 C15.61875,24.7195755 15.9679245,23.6720519 15.3141509,22.7384434 C14.4498821,22.7384434 13.5806604,22.7904481 12.7188679,22.7161557 C11.8570755,22.6418632 11.7753538,22.9786557 11.9759434,23.7067217 C12.3597877,25.0637972 12.4167453,26.4580189 12.4043632,27.8670991 C12.3721698,31.1211085 12.4043632,34.3775943 12.4043632,37.6316038 C12.4043632,40.6033019 12.4043632,40.6033019 15.3141509,40.55625 C15.8961085,39.6573113 16.6935142,40.3432783 17.3869104,40.2714623 C18.8950472,40.8113208 20.4576651,40.4819575 21.9930425,40.5537736 C22.9514151,39.709316 23.3080189,38.5726415 23.3476415,37.3691038 C23.4318396,34.9587264 23.4318396,32.5442217 23.3476415,30.1255896 Z M19.4150943,37.6068396 C18.6375,37.5523585 17.8549528,37.5696934 17.0724057,37.5548349 C16.9956368,37.4632075 16.8792453,37.3864387 16.8619104,37.2626179 C16.5523623,34.9301547 16.5523623,32.5670151 16.8619104,30.2345519 C16.8792453,30.115684 16.9931604,30.0314858 17.0649764,29.9349057 C20.1654481,29.7244104 20.1654481,29.7244104 20.1654481,32.7555425 C20.1654481,34.1150943 20.1431604,35.4795991 20.1654481,36.8292453 C20.1951651,37.4087264 20.0242925,37.6415094 19.4150943,37.6068396 Z" id="Shape" fill="#FFFFFF"></path>
                        <path d="M50.3554245,30.4178066 C50.3182783,29.1325472 49.9814858,27.8943396 48.9636792,26.9731132 C46.4096698,26.9632075 43.8556604,26.9541274 41.3016509,26.9458726 C40.8831368,26.9458726 40.4720519,26.9012972 40.3853774,27.490684 C40.2689858,28.278184 40.1104953,29.0607311 39.9569575,29.9200472 L46.2668632,29.9200472 C46.6680425,29.9200472 47.1063679,29.823467 47.0816038,30.4945755 C47.0444575,31.4158019 47.0816038,32.3370283 47.0816038,33.3795991 C46.1628538,33.0180425 45.4570755,32.6837264 44.7191038,32.4583726 C43.4120143,32.0617503 42.0192782,32.0437186 40.7023585,32.4063679 C39.8900943,32.6416274 39.8950472,34.0036557 39.4988208,34.8456368 C39.2066038,35.4622642 39.4170991,36.1457547 39.3650943,36.7995283 C39.2610849,38.1466981 39.8603774,39.3551887 40.5413915,40.3581368 C40.9574292,40.9722877 42.1659198,40.5091981 43.0178066,40.5612028 C43.5130896,40.5909198 44.0083726,40.5438679 44.5036557,40.5314858 C45.3679245,40.484434 46.1182783,39.8182783 47.0370283,40.0783019 C47.0617925,40.5017689 47.3242925,40.5735849 47.6957547,40.5735849 C48.4659198,40.5537736 49.2360849,40.5735849 50.0087264,40.5612028 C50.3455189,40.2045991 50.3925708,39.7563679 50.3950472,39.2982311 C50.3900943,36.3364387 50.4420991,33.3746462 50.3554245,30.4178066 Z M45.1549528,37.5994104 C44.7909198,37.5994104 44.4268868,37.5746462 44.0628538,37.5597877 C43.6245283,37.0942217 43.6666274,36.5271226 43.7533019,35.9625 C43.8226415,35.5142689 44.0628538,35.2195755 44.5680425,35.2567217 C45.3629717,35.3211085 46.1752358,35.0982311 46.9602594,35.3830189 C47.2995283,37.6018868 47.2995283,37.6018868 45.1574292,37.5944575 L45.1549528,37.5994104 Z" id="Shape" fill="#FFFFFF"></path>
                        <path d="M49.2336085,18.0159198 C46.2891509,18.0778302 46.2891509,18.0778302 46.2891509,15.1061321 C46.2891509,11.8595519 46.271816,8.6129717 46.2891509,5.36886792 C46.2891509,4.00683962 46.2569575,2.65966981 45.8731132,1.3446934 C45.6254717,0.52995283 45.7864387,0.106485849 46.7596698,0.183254717 C47.5768868,0.250117925 48.401533,0.205542453 49.2237028,0.210495283 C49.6867925,0.673584906 49.6199292,1.27040094 49.6248821,1.84245283 C49.6248821,3.82358491 49.6248821,5.80471698 49.6248821,7.78584906 C49.6248821,9.46981132 50.1746462,9.88584906 51.9428066,9.6134434 C52.7402123,8.41981132 53.2553066,7.08502358 53.7604953,5.76261792 C54.1740566,4.67794811 54.7882075,4.20247642 55.9471698,4.37582547 C56.5176479,4.42791591 57.0909124,4.4428059 57.6633255,4.42040094 C58.0075472,4.8884434 57.6806604,5.2821934 57.5023585,5.67841981 C56.8188679,7.21875 56.1650943,8.77393868 55.4370283,10.2944575 C55.1175965,10.8749985 55.1175965,11.5786571 55.4370283,12.1591981 C56.1799528,13.6673349 56.8560142,15.2175708 57.5048349,16.7727594 C57.6682783,17.1665094 58.0199292,17.5627358 57.6410377,18.0233491 C55.2735849,18.4740566 53.7134434,17.7360849 53.1116745,15.2175708 C52.9276694,14.3403464 52.5256823,13.5235972 51.9428066,12.8426887 C50.1152123,12.5529481 49.6645047,12.9516509 49.5902123,14.7049528 C49.5629717,15.809434 49.9616745,16.9832547 49.2336085,18.0159198 Z" id="Shape" fill="#FFFFFF"></path>
                        <path d="M78.254717,4.71757075 C79.8668632,4.17275943 81.5260613,4.40801887 83.1704009,4.42287736 C84.1337264,5.37629717 84.5002358,6.59964623 84.5349057,7.88985849 C84.6141509,10.8466981 84.5670991,13.8035377 84.554717,16.7628538 C84.554717,17.2185142 84.5076651,17.6692217 84.1708726,18.0258255 C81.2264151,18.0604953 81.2264151,18.0604953 81.2264151,15.2002358 C81.2264151,12.934316 81.1966981,10.6683962 81.2412736,8.40247642 C81.2561321,7.60754717 81.0307783,7.2682783 80.2036557,7.35 C79.5498821,7.41438679 78.8862028,7.38466981 78.2225236,7.3995283 C77.0066038,7.75117925 76.8183962,8.63773585 76.8505896,9.76698113 C76.9174528,11.9759434 76.8778302,14.1873821 76.8654481,16.3988208 C76.8654481,16.9659198 76.9149764,17.557783 76.459316,18.0183962 C73.529717,18.0778302 73.5891509,18.0778302 73.5148585,15.1061321 C73.4306604,11.7926887 73.9185142,8.44705189 73.0591981,5.16580189 C72.9007075,4.5615566 73.1978774,4.35601415 73.7823113,4.37582547 C74.6862028,4.41049528 75.5900943,4.40306604 76.4939858,4.4129717 C76.9620283,5.2004717 77.670283,4.60117925 78.254717,4.71757075 Z" id="Shape" fill="#FFFFFF"></path>
                        <path d="M37.3938679,15.021934 L43.3199292,15.0714623 C43.8152123,16.1709906 43.4610849,17.1194575 42.8073113,18.0183962 C40.1278302,18.0183962 37.4483491,18.0060142 34.7688679,18.0481132 C34.1002358,18.0481132 33.7485849,17.8747642 33.4811321,17.2259434 C32.9586085,15.9555425 32.5846698,14.6975236 32.6614387,13.2909198 C32.7483907,11.6411213 32.7483907,9.98788812 32.6614387,8.33808962 C32.5970519,7.02311321 33.2557783,5.96816038 33.6520047,4.81415094 C33.8426887,4.26933962 34.2909198,4.3807783 34.6821934,4.3807783 C37.5696934,4.3807783 40.4588443,4.38738208 43.3496462,4.40058962 C43.7805425,5.50259434 43.5229953,6.47087264 42.7850236,7.34752358 L37.3938679,7.39209906 C36.1383255,7.69917453 35.9080189,8.5807783 36.0045991,9.72735849 C36.0949956,10.7555642 36.0949956,11.7897189 36.0045991,12.8179245 C35.8708726,13.9818396 36.2373821,14.7198113 37.3938679,15.021934 Z" id="Shape" fill="#FFFFFF"></path>
                        <path d="M98.5811321,16.6786557 C98.1527123,14.9451651 98.1799528,13.1621462 98.1849057,11.3865566 C98.1964623,8.24976415 98.1964623,5.1129717 98.1849057,1.97617925 C98.1849057,1.36450472 98.2542453,0.725589623 97.7886792,0.212971698 C96.921934,0.212971698 96.0551887,0.237735849 95.1909198,0.193160377 C94.4628538,0.158490566 94.2350236,0.38384434 94.428184,1.12429245 C94.7303066,2.27830189 94.9804245,3.45212264 94.8268868,4.66308962 C93.9304245,5.28466981 93.1825472,4.41544811 92.3504717,4.41544811 C91.815566,4.41544811 91.2806604,4.38325472 90.7482311,4.38325472 C88.1158019,4.38325472 88.1083726,4.38325472 87.3010613,6.89433962 C87.2007432,7.24694988 87.1531757,7.61246827 87.1599057,7.97900943 C87.1475236,10.1186321 87.1599057,12.2582547 87.1475236,14.3954009 C87.1326651,15.690566 87.6626179,16.871816 88.3411557,17.8277123 C88.7596698,18.4195755 89.8913915,17.9762972 90.7011792,18.0258255 C91.2336085,18.0580189 91.7709906,18.010967 92.3058962,18.0010613 C93.1553066,17.921816 93.9130896,17.325 94.8169811,17.5478774 C94.8813679,18.0728774 95.2726415,18.0431604 95.6465802,18.0431604 L98.4795991,18.010967 C98.6974817,17.6003746 98.7342789,17.1175235 98.5811321,16.6786557 Z M93.9502358,15.0689858 C93.2568396,15.0169811 92.5584906,15.034316 91.8626179,15.021934 C91.7858491,14.9278302 91.6669811,14.8510613 91.6521226,14.729717 C91.3413381,12.3965065 91.3413381,10.032385 91.6521226,7.69917453 C91.6694575,7.57783019 91.7833726,7.49610849 91.8551887,7.3995283 C94.8466981,7.24846698 94.8466981,7.24846698 94.8466981,10.2300708 C94.8466981,11.5400943 94.8145047,12.8525943 94.8466981,14.1650943 C94.8912736,14.8584906 94.6436321,15.123467 93.9502358,15.0689858 Z" id="Shape" fill="#FFFFFF"></path>
                        <path d="M16.4136792,7.59021226 C16.3740566,6.3990566 16.0966981,5.23514151 15.0887972,4.4129717 C13.51875,4.43278302 11.9288915,4.16533019 10.3836085,4.66061321 C8.74669811,4.76709906 8.78879717,4.76709906 8.72688679,3.15990566 C8.68974057,2.16933962 9.03643868,1.12429245 8.38761792,0.203066038 C7.52087264,0.203066038 6.65412736,0.227830189 5.78985849,0.183254717 C5.04693396,0.146108491 4.81662736,0.386320755 5.04693396,1.11686321 C5.49021226,2.60271226 5.48278302,4.12075472 5.47287736,5.64870283 C5.44811321,8.83584906 5.44811321,12.0106132 5.44811321,15.1878538 C5.44811321,18.0778302 5.44811321,18.0778302 8.38266509,18.0208726 C8.95471698,17.1244104 9.74221698,17.7979953 10.428184,17.7360849 C11.9487028,18.2536557 13.5162736,17.9688679 15.064033,18.0183962 C16.0199292,17.1714623 16.3740566,16.0372642 16.4136792,14.8337264 C16.4954009,12.4216981 16.4954009,10.0022406 16.4136792,7.59021226 Z M12.235967,15.0739387 C11.5425708,15.0070755 10.8417453,15.034316 10.1433962,15.021934 C10.0666274,14.9278302 9.94775943,14.8510613 9.93042453,14.7272406 C9.61593478,12.3951064 9.61593478,10.0313087 9.93042453,7.69917453 C9.94528302,7.57783019 10.0591981,7.49610849 10.1334906,7.3995283 C13.2834906,7.23608491 13.2834906,7.23608491 13.2834906,10.3489387 C13.2834906,11.5871462 13.2389151,12.8253538 13.2983491,14.0487028 C13.3429245,14.8783019 13.0333726,15.1482311 12.235967,15.0739387 Z" id="Shape" fill="#FFFFFF"></path>
                        <path d="M64.634434,15.021934 C64.4746154,14.8923413 64.288819,14.7985985 64.0896226,14.7470519 C63.5943396,14.640566 63.2847877,14.3904481 63.2946934,13.8307783 C63.3045991,13.2711085 63.626533,13.0705189 64.109434,12.921934 C64.6194716,12.776785 65.1467339,12.7009858 65.6770047,12.6965802 C66.9795991,12.6569575 68.2871462,12.8377358 69.5823113,12.5925708 C71.4866745,10.8318396 71.298467,5.99044811 69.5303066,4.44021226 L61.8534198,4.41792453 C61.4448113,4.41792453 61.0560142,4.3634434 60.8628538,4.91320755 C60.4121462,6.15141509 59.8004717,7.29551887 59.8896226,8.69221698 C59.9849675,10.2153726 59.9849675,11.743 59.8896226,13.2661557 C59.8029481,14.7173349 60.1818396,16.0174528 60.7514151,17.3175708 C60.9817217,17.8475236 61.2466981,18.0604953 61.8410377,18.0604953 C64.3966981,18.0208726 66.9523585,18.0258255 69.5179245,18.0159198 C70.1097877,17.1169811 70.4168632,16.1685142 70.0330189,15.0987028 L64.634434,15.021934 Z M64.634434,7.42924528 C64.9613208,7.42924528 65.2882075,7.39209906 65.6126179,7.39209906 C67.7869104,7.37724057 67.7869104,7.39209906 67.5442217,9.62087264 C67.0489387,9.86851415 66.5090802,9.73231132 65.9915094,9.73726415 C64.1911557,9.7446934 63.8073113,9.08101415 64.634434,7.42924528 Z" id="Shape" fill="#FFFFFF"></path>
                        <path d="M29.8011792,7.88242925 C29.764033,6.59964623 29.4272406,5.36391509 28.4143868,4.43773585 C26.2301887,4.43773585 24.0459906,4.40801887 21.8617925,4.41544811 C19.4051887,4.41544811 20.1283019,4.19257075 19.5686321,6.31981132 C19.5364387,6.43867925 19.5686321,6.56745283 19.5191038,6.68632075 C19.3457547,7.23856132 19.5537736,7.40695755 20.1084906,7.39457547 C21.4259434,7.36485849 22.7458726,7.39457547 24.0707547,7.39457547 C26.7948113,7.39457547 26.7626179,7.39457547 26.5199292,10.1012972 C26.4654481,10.732783 26.2425708,10.7674528 25.7770047,10.571816 C25.1678066,10.3241745 24.5635613,10.0542453 23.9395047,9.85117925 C21.2451651,8.96709906 19.7048349,9.70259434 18.9668632,12.3127358 C18.4459803,14.1706232 18.805565,16.1647666 19.9425708,17.7237028 C20.546816,18.5830189 21.948467,17.909434 22.9836085,18.0357311 C23.3139513,18.0523011 23.6450723,18.0440231 23.9741745,18.010967 C24.8235849,17.9317217 25.5813679,17.3349057 26.4852594,17.557783 C26.5446934,18.053066 26.9186321,18.053066 27.2900943,18.053066 L29.459434,18.053066 C29.7962264,17.6964623 29.8408019,17.2457547 29.8432783,16.7900943 C29.8358491,13.8010613 29.8853774,10.8417453 29.8011792,7.88242925 Z M24.4917453,15.064033 C24.1673349,15.064033 23.8404481,15.0392689 23.5011792,15.0268868 C23.0603774,14.5588443 23.1,13.9917453 23.1891509,13.4246462 C23.260967,12.9739387 23.5036557,12.6817217 24.0088443,12.7213443 C24.8087264,12.7832547 25.6209906,12.570283 26.410967,12.8426887 C26.6660377,15.0714623 26.6660377,15.0739387 24.4917453,15.0590802 L24.4917453,15.064033 Z" id="Shape" fill="#FFFFFF"></path>
                        <path d="M98.4771226,18.0010613 C98.0287935,16.1709201 97.8018155,14.2935707 97.8010613,12.409316 C97.8580189,8.34551887 97.8010613,4.27924528 97.7886792,0.212971698 C99.5345519,0.193160377 99.5345519,0.193160377 99.5345519,1.90931604 C99.5345519,5.53974057 99.5518868,9.17016509 99.5345519,12.8055425 C99.5056824,13.9926364 99.6069947,15.1793192 99.8366745,16.3443396 C100.20566,18.0778302 100.208137,18.0778302 98.4771226,18.0010613 Z" id="Shape" fill="#EAEAE9"></path>
                        <path d="M84.1683962,18.0233491 C84.1683962,14.5761792 84.1981132,11.1290094 84.1956368,7.68431604 C84.1956368,6.49563679 83.3982311,5.54716981 83.1679245,4.42287736 C84.91875,4.39811321 85.8919811,5.5620283 85.9068396,7.83290094 C85.9365566,10.6683962 85.9068396,13.5038915 85.9068396,16.3393868 C85.9142689,18.0431604 85.9142689,18.0431604 84.1683962,18.0233491 Z" id="Shape" fill="#EAEAE9"></path>
                        <path d="M91.8576651,7.3995283 C91.8576651,9.94033019 91.8576651,12.4811321 91.8576651,15.021934 C90.1241745,15.1086085 90.1241745,15.1086085 90.1241745,13.4221698 L90.1241745,9.01415094 C90.1216981,7.31533019 90.1241745,7.31533019 91.8576651,7.3995283 Z" id="Shape" fill="#EAEAEA"></path>
                        <path d="M10.1384434,7.3995283 C10.1384434,9.94033019 10.1384434,12.4811321 10.1384434,15.021934 C8.41981132,15.1061321 8.41981132,15.1061321 8.41981132,13.3726415 L8.41981132,9.06120283 C8.41981132,7.31533019 8.41981132,7.31533019 10.1384434,7.3995283 Z" id="Shape" fill="#EBEAE8"></path>
                        <path d="M64.634434,7.42924528 C64.6146226,9.61096698 64.6146226,9.61096698 66.8136792,9.61096698 L67.5442217,9.61096698 C66.15,10.046816 64.7087264,9.88337264 63.334316,9.72735849 C62.4626179,9.6307783 63.0396226,8.6303066 62.9182783,8.04834906 C62.8266509,7.60754717 63.0619104,7.35990566 63.5423349,7.38714623 C63.8915094,7.40695755 64.2555425,7.41191038 64.634434,7.42924528 Z" id="Shape" fill="#EAEAEA"></path>
                        <path d="M26.4233491,12.8377358 L25.6804245,12.8377358 C23.4813679,12.8377358 23.4813679,12.8377358 23.5011792,15.0194575 C21.7255896,15.1086085 21.7676887,15.1061321 21.7404481,13.6599057 C21.7181604,12.8253538 22.0128538,12.5504717 22.7978774,12.6321934 C24.0212264,12.760967 25.2396226,12.3994104 26.4233491,12.8377358 Z" id="Shape" fill="#EAEAEA"></path>
                        <path d="M46.9627358,35.378066 C46.7150943,35.378066 46.4798349,35.3954009 46.2371462,35.3954009 C44.0529481,35.3954009 44.0529481,35.3954009 44.0653302,37.5548349 C41.9925708,37.6192217 42.3887972,37.871816 42.3318396,36.0045991 C42.3169811,35.5439858 42.3590802,35.1898585 42.9658019,35.2319575 C44.290684,35.3235849 45.6378538,35.0363208 46.9627358,35.378066 Z" id="Shape" fill="#D3D3D3"></path>
                        <path d="M17.0699292,29.9349057 C17.0699292,32.4757075 17.0699292,35.015684 17.0699292,37.5548349 C15.3711085,37.6489387 15.3711085,37.6489387 15.3711085,35.9525943 L15.3711085,31.4158019 C15.3735849,29.8110849 15.3735849,29.8110849 17.0699292,29.9349057 Z" id="Shape" fill="#D3D3D3"></path>
                    </g>
                </g>
            </g>
        </g>
    </g>
</svg>