<?xml version="1.0" encoding="iso-8859-1"?>
<!-- Generator: Adobe Illustrator 18.1.1, SVG Export Plug-In . SVG Version: 6.00 Build 0)  -->
<svg xmlns="http://www.w3.org/2000/svg" xmlns:xlink="http://www.w3.org/1999/xlink" version="1.1" id="Capa_1" x="0px" y="0px" viewBox="0 0 90 90" style="enable-background:new 0 0 90 90;" xml:space="preserve" width="512px" height="512px">
<g>
	<path d="M81.114,30.146C73.196,11.725,60.456-2.306,54.009,0.316C43.062,4.765,60.53,26.133,6.774,47.984   c-4.643,1.887-5.82,9.441-3.877,13.957c1.939,4.515,8.291,9.01,12.936,7.123c0.803-0.326,3.754-1.275,3.754-1.275   c3.316,4.45,6.787,1.811,8.018,4.639c1.479,3.398,4.697,10.785,5.789,13.298c1.096,2.511,3.576,4.837,5.377,4.153   c1.795-0.684,7.91-3.011,10.25-3.901c2.338-0.89,2.896-2.974,2.182-4.619c-0.771-1.772-3.932-2.292-4.832-4.36   c-0.902-2.068-3.848-8.696-4.695-10.785c-1.152-2.841,1.295-5.152,4.85-5.522c24.467-2.55,29.041,12.561,37.371,9.173   C90.343,67.243,89.03,48.568,81.114,30.146z M78.358,60.03c-1.432,0.582-11.061-7.013-17.215-21.334   c-6.152-14.318-5.379-27.408-3.949-27.989c1.43-0.582,10.822,8.58,16.975,22.898C80.321,47.923,79.79,59.448,78.358,60.03z" fill="#FFFFFF"/>
</g>
<g>
</g>
<g>
</g>
<g>
</g>
<g>
</g>
<g>
</g>
<g>
</g>
<g>
</g>
<g>
</g>
<g>
</g>
<g>
</g>
<g>
</g>
<g>
</g>
<g>
</g>
<g>
</g>
<g>
</g>
</svg>
